<?xml version="1.0" encoding="iso-8859-1"?>
<!-- Generator: Adobe Illustrator 17.1.0, SVG Export Plug-In . SVG Version: 6.00 Build 0)  -->
<!DOCTYPE svg PUBLIC "-//W3C//DTD SVG 1.1//EN" "http://www.w3.org/Graphics/SVG/1.1/DTD/svg11.dtd">
<svg version="1.1" id="Capa_1" xmlns="http://www.w3.org/2000/svg" xmlns:xlink="http://www.w3.org/1999/xlink" x="0px" y="0px"
     viewBox="0 0 259.342 259.342" style="enable-background:new 0 0 259.342 259.342;" xml:space="preserve">
<g>
    <path d="M190.831,125.336c-0.866,0-1.756,0.124-2.643,0.369l-10.044,2.766l-10.43-25.406c-2.955-7.198-11.688-13.053-19.469-13.053
	H50.637c-7.78,0-16.514,5.855-19.469,13.053l-10.416,25.372l-9.917-2.731c-0.888-0.245-1.777-0.369-2.644-0.369
	c-4.747,0-8.191,3.626-8.191,8.622v5.923c0,5.832,4.745,10.576,10.577,10.576h1.136l-1.683,4.1
	c-2.745,6.688-4.978,18.009-4.978,25.237v50.473c0,5.832,4.745,10.576,10.577,10.576h13.815c5.832,0,10.577-4.744,10.577-10.576
	v-12.606h118.845v12.606c0,5.832,4.745,10.576,10.577,10.576h13.813c5.832,0,10.577-4.744,10.577-10.576v-50.473
	c0-7.229-2.233-18.55-4.978-25.237l-1.683-4.1h1.277c5.832,0,10.577-4.744,10.577-10.576v-5.923
	C199.022,128.962,195.577,125.336,190.831,125.336z M28.337,144.713l15.776-38.431c1.767-4.305,7.021-7.828,11.675-7.828h87.306
	c4.654,0,9.907,3.522,11.675,7.828l15.776,38.431c1.768,4.305-0.594,7.827-5.248,7.827H33.585
	C28.932,152.54,26.57,149.018,28.337,144.713z M63.556,193.321c0,2.326-1.904,4.23-4.23,4.23H29.354c-2.327,0-4.23-1.904-4.23-4.23
	v-14.384c0-2.326,1.904-4.23,4.23-4.23h29.971c2.327,0,4.23,1.904,4.23,4.23V193.321z M173.474,193.321
	c0,2.326-1.904,4.23-4.23,4.23h-29.97c-2.327,0-4.23-1.904-4.23-4.23v-14.384c0-2.326,1.904-4.23,4.23-4.23h29.97
	c2.327,0,4.23,1.904,4.23,4.23V193.321z"/>
    <path d="M250.68,76.243h-17.77L47.409,17.113c-0.85-0.271-1.731-0.408-2.621-0.408c-3.792,0-7.113,2.423-8.263,6.03l-4.018,12.605
	c-0.702,2.199-0.502,4.545,0.562,6.604c1.063,2.059,2.86,3.579,5.06,4.28l181.145,57.741v130.01c0,4.776,3.886,8.662,8.662,8.662
	h22.744c4.776,0,8.662-3.886,8.662-8.662V84.905C259.342,80.128,255.456,76.243,250.68,76.243z M60.695,32.556l-2.794,8.765
	c-0.708,2.223-2.765,3.642-4.98,3.642c-0.526,0-1.062-0.08-1.589-0.249c-2.751-0.877-4.271-3.818-3.394-6.569l2.794-8.765
	c0.876-2.752,3.82-4.272,6.569-3.394C60.053,26.864,61.572,29.805,60.695,32.556z M91.308,42.314l-2.793,8.764
	c-0.708,2.224-2.765,3.643-4.98,3.643c-0.526,0-1.061-0.08-1.589-0.249c-2.751-0.876-4.271-3.818-3.394-6.569l2.793-8.764
	c0.877-2.753,3.818-4.271,6.569-3.394C90.665,36.622,92.185,39.563,91.308,42.314z M121.922,52.072l-2.793,8.765
	c-0.709,2.223-2.765,3.642-4.98,3.642c-0.526,0-1.061-0.08-1.589-0.248c-2.751-0.877-4.271-3.818-3.394-6.569l2.794-8.765
	c0.877-2.752,3.816-4.272,6.569-3.394C121.279,46.38,122.799,49.321,121.922,52.072z M152.535,61.831l-2.793,8.765
	c-0.708,2.223-2.765,3.642-4.98,3.642c-0.526,0-1.061-0.08-1.589-0.248c-2.751-0.877-4.271-3.818-3.394-6.569l2.794-8.765
	c0.877-2.752,3.816-4.273,6.569-3.394C151.893,56.138,153.412,59.079,152.535,61.831z M183.149,71.589l-2.794,8.765
	c-0.708,2.223-2.765,3.642-4.98,3.642c-0.526,0-1.062-0.08-1.589-0.248c-2.751-0.877-4.271-3.818-3.394-6.569l2.794-8.765
	c0.876-2.752,3.818-4.272,6.569-3.394C182.507,65.896,184.026,68.838,183.149,71.589z M213.762,81.346l-2.793,8.764
	c-0.708,2.224-2.765,3.643-4.98,3.643c-0.526,0-1.061-0.08-1.589-0.249c-2.751-0.876-4.271-3.818-3.394-6.569l2.793-8.764
	c0.877-2.753,3.819-4.273,6.569-3.394C213.12,75.654,214.639,78.595,213.762,81.346z"/>
</g>
<g>
</g>
<g>
</g>
<g>
</g>
<g>
</g>
<g>
</g>
<g>
</g>
<g>
</g>
<g>
</g>
<g>
</g>
<g>
</g>
<g>
</g>
<g>
</g>
<g>
</g>
<g>
</g>
<g>
</g>
</svg>
